<svg xmlns="http://www.w3.org/2000/svg" width="282.492" height="282.492" viewBox="0 0 282.492 282.492"><path d="M112.629,400.364a58.5,58.5,0,1,1,58.495-58.5,58.5,58.5,0,0,1-58.495,58.5Zm0-95.932a37.438,37.438,0,1,0,37.431,37.435A37.439,37.439,0,0,0,112.629,304.431Z" transform="translate(-54.12 -117.872)"/><path d="M350.059,345.363a58.5,58.5,0,1,1,58.495-58.5,58.5,58.5,0,0,1-58.495,58.5Zm0-95.932a37.438,37.438,0,1,0,37.431,37.433A37.439,37.439,0,0,0,350.059,249.431Z" transform="translate(-126.068 -101.489)"/><path d="M201.292,283.043a10.532,10.532,0,0,1-10.532-10.532V98.81a10.532,10.532,0,0,1,8.208-10.272L365.675,50.77a10.532,10.532,0,0,1,12.856,10.272V233.886a10.532,10.532,0,1,1-21.064,0V74.228l-145.644,33V272.511A10.532,10.532,0,0,1,201.292,283.043Z" transform="translate(-96.046 -50.51)"/><path d="M201.272,177.658a10.532,10.532,0,0,1-2.317-20.811l166.708-37.768a10.533,10.533,0,1,1,4.655,20.544L203.61,177.391a10.344,10.344,0,0,1-2.338.267Z" transform="translate(-96.033 -70.424)"/></svg>