<?xml version="1.0" encoding="utf-8"?>
<!-- Generator: Adobe Illustrator 24.0.2, SVG Export Plug-In . SVG Version: 6.00 Build 0)  -->
<svg version="1.1" id="Layer_1" xmlns="http://www.w3.org/2000/svg" xmlns:xlink="http://www.w3.org/1999/xlink" x="0px" y="0px"
	 viewBox="0 0 500 500" style="enable-background:new 0 0 500 500;" xml:space="preserve">
<style type="text/css">
	.st0{fill:#0071BC;stroke:#000000;stroke-miterlimit:10;}
	.st1{fill:#00FFFF;stroke:#000000;stroke-miterlimit:10;}
	.st2{fill:#FFFF00;stroke:#000000;stroke-miterlimit:10;}
	.st3{fill:#FFFFFF;stroke:#000000;stroke-miterlimit:10;}
	.st4{fill:#F7931E;stroke:#000000;stroke-miterlimit:10;}
</style>
<g>
	<path class="st0" d="M427.83,135.35c-5.9-1.35-12.03-2.07-18.34-2.07c-0.24,0-0.47,0-0.71,0.02c-7.53,0.06-14.83,1.15-21.74,3.13
		c-15.99,4.56-29.96,13.89-40.29,26.35c-18.49-34.42-54.93-57.83-96.87-57.83c-0.33,0-0.63,0-0.96,0.02
		c-60.2,0.5-108.85,49.28-108.85,109.36c0,1.51,0.03,3.01,0.1,4.51v0.01c-1.63,18.29-13.15,33.73-29.16,40.96
		c-6.25,2.83-13.19,4.4-20.5,4.4c-0.15,0-0.29,0-0.44-0.01c-7.07-0.06-13.79-1.59-19.86-4.31c-17.44-7.76-29.58-25.24-29.58-45.56
		c0-20.32,12.14-37.8,29.58-45.56c6.07-2.72,12.79-4.25,19.86-4.31c0.15-0.01,0.29-0.01,0.44-0.01v-31.63c-0.25,0-0.48,0-0.72,0.02
		c-6.76,0.05-13.32,0.93-19.58,2.54C35.02,144.39,9,176.33,9,214.33s26.02,69.94,61.21,78.95c6.26,1.61,12.82,2.49,19.58,2.54
		c0.24,0.02,0.47,0.02,0.72,0.02c7.08,0,13.95-0.9,20.5-2.6c16.8-4.35,31.49-13.93,42.25-26.9c18.44,33.9,54.33,57.01,95.66,57.35
		c0.33,0.02,0.63,0.02,0.96,0.02c60.65,0,109.81-48.97,109.81-109.38c0-0.56,0-1.11-0.02-1.66c0.77-18.57,11.7-34.51,27.37-42.43
		c6.62-3.34,14.1-5.25,22.02-5.32c0.15-0.01,0.29-0.01,0.43-0.01c6.47,0,12.66,1.23,18.34,3.48c18.47,7.31,31.54,25.33,31.54,46.4
		s-13.07,39.08-31.54,46.39c-5.68,2.25-11.87,3.48-18.34,3.48h-0.43l-0.28,31.62c0.24,0.01,0.47,0.01,0.71,0.01
		c6.31,0,12.44-0.72,18.34-2.07C464.02,285.9,491,253.5,491,214.79S464.02,143.67,427.83,135.35z M250.65,293.23
		c-0.23,0-0.44,0-0.68-0.01c-42.54-0.36-76.91-34.96-76.91-77.59c0-42.62,34.37-77.23,76.91-77.58c0.24-0.02,0.45-0.02,0.68-0.02
		c41.2,0,74.9,32.11,77.44,72.66c0.09,1.35,0.14,2.72,0.15,4.1c0.01,0.28,0.01,0.56,0.01,0.84
		C328.25,258.49,293.51,293.23,250.65,293.23z"/>
</g>
<g>
	<path class="st1" d="M328.24,214.79h-0.25c0-1.38,0.03-2.74,0.1-4.1C328.18,212.04,328.23,213.41,328.24,214.79z"/>
</g>
<g>
	<path class="st2" d="M328.25,215.63c0,42.86-34.74,77.6-77.6,77.6c-0.23,0-0.44,0-0.68-0.01c-42.54-0.36-76.91-34.96-76.91-77.59
		c0-42.62,34.37-77.23,76.91-77.58c0.24-0.02,0.45-0.02,0.68-0.02c41.2,0,74.9,32.11,77.44,72.66c0.09,1.35,0.14,2.72,0.15,4.1
		C328.25,215.07,328.25,215.35,328.25,215.63z"/>
	<path class="st3" d="M328.25,215.63c0,42.86-34.74,77.6-77.6,77.6c-0.23,0-0.44,0-0.68-0.01c-42.54-0.36-76.91-34.96-76.91-77.59
		c0-42.62,34.37-77.23,76.91-77.58c0.24-0.02,0.45-0.02,0.68-0.02c41.2,0,74.9,32.11,77.44,72.66c0.09,1.35,0.14,2.72,0.15,4.1
		C328.25,215.07,328.25,215.35,328.25,215.63z"/>
</g>
<path class="st4" d="M427.83,53.22v270.83c0,67.65-79.97,122.39-178.81,122.39c-98.83,0-178.81-54.74-178.81-122.39V53.22h40.8
	v270.83c0,45.1,61.73,81.59,138.01,81.59c76.29,0,138.02-36.49,138.02-81.59V53.22H427.83z"/>
</svg>